<svg xmlns="http://www.w3.org/2000/svg" xmlns:xlink="http://www.w3.org/1999/xlink" fill="none" version="1.1" width="32" height="32" viewBox="0 0 32 32"><defs><linearGradient x1="0.5" y1="0" x2="0.4067230224609375" y2="1" id="master_svg0_957_61848"><stop offset="0%" stop-color="#0073FF" stop-opacity="1"/><stop offset="100%" stop-color="#36A4FF" stop-opacity="1"/></linearGradient><clipPath id="master_svg1_3005_96974"><rect x="6" y="6" width="20" height="20" rx="0"/></clipPath></defs><g><rect x="0" y="0" width="32" height="32" rx="16" fill="url(#master_svg0_957_61848)" fill-opacity="1"/><g clip-path="url(#master_svg1_3005_96974)"><g><g><path d="M24.011348046875,7.672803576875L7.989454046875,13.013448046875C7.742277346875,13.095838046875,7.608693046875,13.363008046874999,7.691085346875,13.610188046874999C7.728410046875,13.722158046875,7.806353046875,13.816068046875,7.909530046875,13.873398046875L14.322218046875001,17.435998046875C14.414278046875001,17.487148046875,14.529098046875,17.471068046875,14.603568046875,17.396598046875L24.132048046875,7.868088046875C24.178148046875,7.822030046875,24.178148046875,7.747353946875,24.132048046875,7.7012952468750004C24.100448046875,7.669706946875,24.053748046875,7.658676856875,24.011348046875,7.672803576875Z" fill-rule="evenodd" fill="#FFFFFF" fill-opacity="1"/></g><g style="opacity:0.3199999928474426;"><path d="M24.327313828125,7.98873309375L18.986663828125,24.01069609375C18.904273828125,24.25779609375,18.637103828125,24.39139609375,18.389933828125,24.30899609375C18.277953828125,24.27169609375,18.184043828125,24.19379609375,18.126723828125,24.09059609375L14.564113628125,17.67789609375C14.512967428125,17.58582609375,14.529047788125,17.471016093750002,14.603517728125,17.39654609375L24.132023828125,7.86804009375C24.178083828125,7.82198139375,24.252763828124998,7.82198139375,24.298813828125,7.86804009375C24.330403828125,7.89962839375,24.341433828125,7.94635309375,24.327313828125,7.98873309375Z" fill-rule="evenodd" fill="#FFFFFF" fill-opacity="1"/></g></g></g></g></svg>