<svg xmlns="http://www.w3.org/2000/svg" xmlns:xlink="http://www.w3.org/1999/xlink" fill="none" version="1.1" width="16" height="16" viewBox="0 0 16 16"><g><g><path d="M3.78694015625,2.758453673828125C3.65055015625,2.622063773828125,3.46556715625,2.545440673828125,3.27268315625,2.545440673828125C3.07979815625,2.545440673828125,2.89481315625,2.622063773828125,2.75842315625,2.758453673828125C2.62203325625,2.894843673828125,2.54541015625,3.079828673828125,2.54541015625,3.272713673828125C2.54541015625,3.465597673828125,2.62203325625,3.650580673828125,2.75842315625,3.786970673828125L6.97144015625,7.999990673828125L2.75869615625,12.212730673828124L2.75842315625,12.213000673828125C2.62203325625,12.349390673828125,2.54541015625,12.534370673828125,2.54541015625,12.727240673828126C2.5454101995988,12.738940673828125,2.54569014625,12.750540673828125,2.54624978025,12.762240673828124C2.55493484625,12.942740673828125,2.63057685625,13.113640673828124,2.75842315625,13.241540673828124C2.89481315625,13.377940673828125,3.07979815625,13.454540673828125,3.27268315625,13.454540673828125C3.46556715625,13.454540673828125,3.65055015625,13.377940673828125,3.78694015625,13.241540673828124L3.78721015625,13.241240673828125L7.99996015625,9.028500673828125L12.21297015625,13.241540673828124C12.34936015625,13.377940673828125,12.53434015625,13.454540673828125,12.72721015625,13.454540673828125C12.92011015625,13.454540673828125,13.10511015625,13.377940673828125,13.24151015625,13.241540673828124C13.37791015625,13.105140673828124,13.45451015625,12.920140673828126,13.45451015625,12.727240673828126C13.45451015625,12.534370673828125,13.37791015625,12.349390673828125,13.24151015625,12.213000673828125L9.02847015625,7.999990673828125L13.24121015625,3.787240673828125L13.24151015625,3.786970673828125C13.37791015625,3.650580673828125,13.45451015625,3.465597673828125,13.45451015625,3.272713673828125C13.45451015625,3.079828673828125,13.37791015625,2.894843673828125,13.24151015625,2.758453673828125L13.24111015625,2.758037673828125C13.24111015625,2.758037673828125,13.23521015625,2.752251673828125,13.23521015625,2.752251673828125L13.23481015625,2.751840673828125C13.09901015625,2.619502473828125,12.91681015625,2.545440673828125,12.72721015625,2.545440673828125C12.53434015625,2.545440673828125,12.34936015625,2.622063773828125,12.21297015625,2.758453673828125L12.21270015625,2.758726673828125L7.99996015625,6.971470673828125L3.78694015625,2.758453673828125Z" fill-rule="evenodd" fill="#4B4B4B" fill-opacity="1"/></g></g></svg>