<svg xmlns="http://www.w3.org/2000/svg" xmlns:xlink="http://www.w3.org/1999/xlink" fill="none" version="1.1" width="32" height="32" viewBox="0 0 32 32"><g><rect x="0" y="0" width="32" height="32" rx="2" fill="#E9EDFA" fill-opacity="1"/><g><rect x="0" y="0" width="32" height="32" rx="4" fill="#1479FE" fill-opacity="0.08757989853620529"/><g><g transform="matrix(-1,-1.2246468525851679e-16,1.2246468525851679e-16,-1,44.80029296875,38.4000244140625)"><path d="M23.765776484375,19.43433820703125C23.615776484375,19.28428950703125,23.412256484375,19.20001220703125,23.200146484375,19.20001220703125C22.988037484375,19.20001220703125,22.784521484375,19.28428950703125,22.634521484375,19.43433820703125C22.484521484375,19.58436320703125,22.400146484375,19.78782920703125,22.400146484375,20.00001220703125C22.400146484375,20.21219220703125,22.484521484375,20.41566220703125,22.634521484375,20.56568220703125L28.234516484375,26.16568220703125C28.546826484375,26.478112207031252,29.053466484375,26.478112207031252,29.365776484375,26.16568220703125L34.965546484375,20.56600220703125L34.965746484375,20.56568220703125C35.115746484375,20.41566220703125,35.200146484375,20.21219220703125,35.200146484375,20.00001220703125C35.200146484375,19.78782920703125,35.115746484375,19.58436320703125,34.965746484375,19.43433820703125C34.815746484375,19.28428950703125,34.612246484375,19.20001220703125,34.400146484375,19.20001220703125C34.188046484375,19.20001220703125,33.984546484375,19.28428950703125,33.834546484375,19.43433820703125L33.834146484375,19.43463120703125L28.800146484375,24.46864220703125L23.765776484375,19.43433820703125Z" fill-rule="evenodd" fill="#1483FE" fill-opacity="1"/></g></g></g></g></svg>