<svg xmlns="http://www.w3.org/2000/svg" xmlns:xlink="http://www.w3.org/1999/xlink" fill="none" version="1.1" width="40" height="40" viewBox="0 0 40 40"><defs><linearGradient x1="0.008432748727500439" y1="0.027608152478933334" x2="0.4908125698566437" y2="0.9818258881568909" id="master_svg0_1202_73714"><stop offset="0%" stop-color="#FFD791" stop-opacity="1"/><stop offset="100%" stop-color="#FF9946" stop-opacity="1"/></linearGradient></defs><g><g><rect x="0" y="0" width="40" height="40" rx="7.954285621643066" fill="url(#master_svg0_1202_73714)" fill-opacity="1"/></g><g><g style="opacity:0.3199999928474426;"><path d="M28.408596658935547,25.620717584278907Q27.879146658935547,26.148211650878906,27.275736658935546,26.615396650878907Q26.672316658935546,27.082584650878907,26.00446665893555,27.482094650878906Q25.336616658935547,27.881594650878906,24.614846658935548,28.207134650878906Q23.893085658935547,28.532664650878907,23.128795655435546,28.779084650878907L27.568626658935546,30.902204650878907C28.252726658935547,31.229254650878907,29.02183665893555,30.707074650878905,28.999976658935548,29.975234650878907L28.990656658935546,29.863964650878906L28.408596658935547,25.620717584278907Z" fill-rule="evenodd" fill="#FFFFFF" fill-opacity="1"/></g><g><path d="M20,28.9Q20.27,28.9,20.5397,28.888Q20.8095,28.876,21.078200000000002,28.8521Q21.346899999999998,28.8281,21.614,28.7923Q21.8811,28.7565,22.146,28.7088Q22.410800000000002,28.6612,22.672800000000002,28.6018Q22.9347,28.5425,23.1931,28.4716Q23.4515,28.4007,23.7058,28.3184Q23.96,28.2361,24.2095,28.1426Q24.459,28.0491,24.7031,27.9447Q24.947200000000002,27.8403,25.1854,27.7251Q25.4235,27.61,25.6551,27.4844Q25.8867,27.3588,26.1113,27.2231Q26.3358,27.0874,26.5527,26.9419Q26.7696,26.7964,26.9783,26.6415Q27.1871,26.4865,27.3871,26.3225Q27.5872,26.1584,27.7782,25.9857Q27.9691,25.813,28.1505,25.632Q28.3318,25.451,28.5031,25.2622Q28.6744,25.0734,28.8353,24.877200000000002Q28.9961,24.680999999999997,29.1462,24.477899999999998Q29.2962,24.2748,29.435,24.0653Q29.5738,23.855800000000002,29.7011,23.6404Q29.8284,23.425,29.9439,23.2042Q30.0593,22.9834,30.1627,22.7577Q30.266,22.532,30.357,22.3021Q30.448,22.0721,30.5263,21.8383Q30.6047,21.604599999999998,30.6703,21.3677Q30.736,21.130699999999997,30.7886,20.8911Q30.8413,20.651600000000002,30.8809,20.41Q30.9206,20.1684,30.947,19.9253Q30.9735,19.6822,30.9867,19.438200000000002Q31,19.1943,31,18.95Q31,18.70574,30.9867,18.461779999999997Q30.9735,18.21781,30.947,17.97473Q30.9206,17.731650000000002,30.8809,17.49003Q30.8413,17.24842,30.7886,17.008850000000002Q30.736,16.769280000000002,30.6703,16.53235Q30.6047,16.29541,30.5263,16.06167Q30.448,15.82793,30.357,15.59795Q30.266,15.36797,30.1627,15.142299999999999Q30.0593,14.91663,29.9439,14.69583Q29.8284,14.47502,29.7011,14.259599999999999Q29.5738,14.04419,29.435,13.834679999999999Q29.2962,13.62517,29.1462,13.422080000000001Q28.9961,13.21898,28.8353,13.02279Q28.6744,12.8266,28.5031,12.637789999999999Q28.3318,12.44897,28.1505,12.267990000000001Q27.9691,12.087,27.7782,11.91429Q27.5872,11.74157,27.3871,11.577539999999999Q27.1871,11.413499999999999,26.9783,11.25855Q26.7696,11.10359,26.5527,10.95808Q26.3358,10.81258,26.1113,10.67688Q25.8867,10.54117,25.6551,10.4156Q25.4235,10.29003,25.1854,10.17488Q24.947200000000002,10.05974,24.7031,9.955306Q24.459,9.850872,24.2095,9.757399Q23.96,9.663925,23.7058,9.581636Q23.4515,9.499348,23.1931,9.428444Q22.9347,9.357539,22.672800000000002,9.298189Q22.410800000000002,9.238839,22.146,9.191186Q21.8811,9.143534,21.614,9.107694Q21.346899999999998,9.0718535,21.078200000000002,9.047912Q20.8095,9.0239704,20.5397,9.0119852Q20.27,9,20,9Q19.73,9,19.4603,9.0119852Q19.1905,9.0239704,18.92181,9.047912Q18.65308,9.0718535,18.38596,9.107694Q18.118850000000002,9.143534,17.854,9.191186Q17.58916,9.238839,17.32722,9.298189Q17.065269999999998,9.357539,16.80687,9.428444Q16.54846,9.499348,16.29421,9.581636Q16.03996,9.663925,15.790479999999999,9.757399Q15.541,9.850872,15.296890000000001,9.955306Q15.05279,10.05974,14.81464,10.17488Q14.57649,10.29003,14.34487,10.4156Q14.11325,10.54117,13.888729999999999,10.67688Q13.664200000000001,10.81258,13.44731,10.95808Q13.23041,11.10359,13.02167,11.25855Q12.81293,11.413499999999999,12.61285,11.577539999999999Q12.41277,11.74157,12.22183,11.91429Q12.03088,12.087,11.849540000000001,12.267990000000001Q11.66819,12.44897,11.49688,12.637789999999999Q11.32558,12.8266,11.164719999999999,13.02279Q11.00386,13.21898,10.85383,13.422080000000001Q10.70381,13.62517,10.56499,13.834679999999999Q10.42616,14.04419,10.29887,14.259599999999999Q10.17157,14.47502,10.05612,14.69583Q9.940663,14.91663,9.837325,15.142299999999999Q9.733986999999999,15.36797,9.643015,15.59795Q9.552043,15.82793,9.473656,16.06167Q9.395269,16.29541,9.329656,16.53235Q9.264043000000001,16.769280000000002,9.211362,17.008850000000002Q9.158681,17.24842,9.119058,17.49003Q9.079436,17.731650000000002,9.052968,17.97473Q9.0265,18.21781,9.01325,18.461779999999997Q9,18.70574,9,18.95Q9,19.1943,9.01325,19.438200000000002Q9.0265,19.6822,9.052968,19.9253Q9.079436,20.1684,9.119058,20.41Q9.158681,20.651600000000002,9.211362,20.8911Q9.264043000000001,21.130699999999997,9.329656,21.3677Q9.395269,21.604599999999998,9.473656,21.8383Q9.552043,22.0721,9.643015,22.3021Q9.733986999999999,22.532,9.837325,22.7577Q9.940663,22.9834,10.05612,23.2042Q10.17157,23.425,10.29887,23.6404Q10.42616,23.855800000000002,10.56499,24.0653Q10.70381,24.2748,10.85383,24.477899999999998Q11.00386,24.680999999999997,11.164719999999999,24.877200000000002Q11.32558,25.0734,11.49688,25.2622Q11.66819,25.451,11.849540000000001,25.632Q12.03088,25.813,12.22183,25.9857Q12.41277,26.1584,12.61285,26.3225Q12.81293,26.4865,13.02167,26.6415Q13.23041,26.7964,13.44731,26.9419Q13.664200000000001,27.0874,13.888729999999999,27.2231Q14.11325,27.3588,14.34487,27.4844Q14.57649,27.61,14.81464,27.7251Q15.05279,27.8403,15.296890000000001,27.9447Q15.541,28.0491,15.790479999999999,28.1426Q16.03996,28.2361,16.29421,28.3184Q16.54846,28.4007,16.80687,28.4716Q17.065269999999998,28.5425,17.32722,28.6018Q17.58916,28.6612,17.854,28.7088Q18.118850000000002,28.7565,18.38596,28.7923Q18.65308,28.8281,18.92181,28.8521Q19.1905,28.876,19.4603,28.888Q19.73,28.9,20,28.9ZM24.7682,21.3598C24.4147,20.9356,23.784100000000002,20.8782,23.3598,21.2318C22.817999999999998,21.6833,21.4879,22,20,22C18.51212,22,17.18206,21.6833,16.64021,21.2318C16.21593,20.8782,15.585370000000001,20.9356,15.2318,21.3598C14.87824,21.784100000000002,14.935559999999999,22.4147,15.35984,22.7682C16.337989999999998,23.583399999999997,18.08794,24,20,24C21.912100000000002,24,23.662100000000002,23.583399999999997,24.6402,22.7682C25.0645,22.4147,25.1218,21.784100000000002,24.7682,21.3598Z" fill-rule="evenodd" fill="#FFFFFF" fill-opacity="1"/></g></g></g></svg>